<svg viewBox="0 0 1057 972">
  <path fill="#fff" d="M1028 97a84 84 0 0 0-157-53 56 56 0 0 0-79 51h-2a44 44 0 1 0 0 87h228a44 44 0 0 0 10-85M179 468a34 34 0 0 0-45-33 51 51 0 0 0-97 16c-7 3-13 10-13 19v1a27 27 0 0 0 12 50h140a27 27 0 0 0 3-53"/>
  <path fill="#823939" d="M710 380l60 3 17-44 23 5-20 69-58 5-22-38"/>
  <path fill="#f47720" d="M0 718l408 35-109 91zm906 0l-407 35 109 91z"/>
  <path fill="#f8a51d" d="M299 815l154 54V556z"/>
  <path fill="#fabd1b" d="M608 814l-155 54V555z"/>
  <path fill="#672e2d" d="M698 550l2 118-24 115h45l25-100-4-137-44 4"/>
  <path fill="#672e2d" d="M655 549l-13 119-24 115h45l25-100 16-137-49 3"/>
  <path fill="#823939" d="M717 382l6 2 5 10h-7l-4-12"/>
  <path fill="#823939" d="M666 378s83-24 76 48l-1 122-17 16-10-15-9 17-53-4 9-108s-7-75 5-76"/>
  <path fill="#f6fcfe" d="M700 388l-3 4s21 52 24 73l-3-75-6 1-12-3"/>
  <path fill="#823939" d="M676 633l8 70s-67-49-72-73l-1-40 65 43"/>
  <path fill="#944b4f" d="M673 625l3-20 18 5 2 1s11 76 6 90l-18 2s-13-40-11-78"/>
  <path fill="#823939" d="M625 556l71 55h-11c-3 0-8 4-8 4l-65-57 8-2h5"/>
  <path fill="#9a3d3b" d="M677 615l-3 13 1 24-68-61c-1-20 5-33 5-33l65 57"/>
  <path fill="#9bb1b8" d="M657 631s9 4 8 8l-1 7-7-6c0-2-2-6 0-9m-41-38s6 5 6 8l-2 8s-4-2-5-5c0 0-1-8 1-11"/>
  <path fill="#9a3d3b" d="M659 634l4 3-1 6-4-4 1-5m-42-37l2 3v5l-3-3 1-5"/>
  <path fill="#672e2d" d="M671 597s4-17 1-20c0-1-24-19-28-16l-4 12 3 4s4-9 6-9 17 10 17 10 3 6 1 14c0 0-1 3 3 4"/>
  <path fill="#fac182" d="M721 372l-9 19-22-14 6-22 25 17"/>
  <path fill="#fac182" d="M703 315s-26 32 11 62c5 4 28 2 28 2s-1-5 1-27l9-4-9-21-1-15s-28-14-39 3"/>
  <path fill="#702e27" d="M708 313s3-7 16 0c7 3 28 6 30-9 0 0-5 3-12-5 0 0-34-21-47-1 0 0-29 9-11 51l7 14 14 2-6-24s-1-10 8-9c0 0 3 3 3 12l5-1v-12c0-11-10-9-7-18"/>
  <path fill="#d8e2e4" d="M704 381l-6 7 14 3-5-10h-3"/>
  <path fill="#f6fcfe" d="M690 369l-9 7 15 17 11-12-17-12"/>
  <path fill="#d8e2e4" d="M716 383l-4 8 6-1z"/>
  <path fill="#f6fcfe" d="M716 383l4 11 3-6-6-8-1 3"/>
  <path fill="#bec7ca" d="M700 389l9 2v1l-10-2 1-1m18 1l-5 1v1l5-1v-1"/>
  <path fill="#6e3030" d="M710 404v23l11 39-1-40-4-22h-6"/>
  <path fill="#6e3030" d="M685 413l1-1 9-8-21-4v-23h2v21l24 5-2 1-10 9 34 51s-37-49-37-51"/>
  <path fill="#6e3030" d="M721 464l9-48-8-13 6-9 2 2-5 7 7 13-11 48m-12-73l-4 9 5 5 6-1 2-4-4-9h-5"/>
  <path fill="#fac182" d="M641 551l2 5s-3 4-1 10l3 8s17 8 21 4v-17s-3-7-10-9l-1-3-14 2"/>
  <path fill="#f6fcfe" d="M635 549l2 8 25-7-2-8-25 7"/>
  <path fill="#823939" d="M663 379s8 7 13 49l-24 38 11 77-30 9s-17-68-15-91c3-23 29-68 45-82"/>
  <path fill="#6e3030" d="M640 544a3 3 0 1 1-5 0 3 3 0 0 1 5 0m80-18l-6 23 6-41 1-43v-8c0 2 2 31 1 51l-2 18"/>
  <path fill="#f47720" d="M453 815L299 969h309z"/>
  <path fill="#f78f1f" d="M0 718l299 251 154-154zm906 0L608 969 453 815z"/>
  <path fill="#fff" d="M608 972H299a3 3 0 1 1 0-5h309a3 3 0 1 1 0 5"/>
  <path fill="#f6fcfe" d="M789 340l2-7 20 4-3 7-19-4"/>
  <path fill="#3f4f69" d="M822 321h-67a6 6 0 0 0 0 12h67v-12"/>
  <path fill="#3f4f69" d="M887 317h-59a10 10 0 0 0 0 20h59v-20"/>
  <path fill="#fac182" d="M791 321s3-6 8-6l17 3s2 4 0 6l-20-3h-5m12 5s-11 1-12 7l10 2 1-4s6-2 5-6l-4 1"/>
  <path fill="#fac182" d="M801 332v3l9 2 2-4h-10l-1-1"/>
  <path fill="#4f6283" d="M890 339h-10v-24h10v24"/>
</svg>
