<svg viewBox="0 0 174.8 330.7">
  <path fill="#007dff" d="M124.97 183.07l49.83-17.47V0H0v125.6l110.17 56.53c4.53 2.27 10 2.67 14.8.94M13.5 298.13L0 303.47v27.23h82.57l-58.94-32.03a12 12 0 0 0-10.13-.54"/>
  <g opacity=".75">
    <path fill="#fff" d="M140.59 42.3a8.57 8.57 0 0 0-16.01-5.4 5.71 5.71 0 0 0-8.06 5.2h-.2a4.49 4.49 0 1 0 0 8.87h23.25a4.49 4.49 0 0 0 1.02-8.67M54.02 80.13a3.47 3.47 0 0 0-4.6-3.36 5.2 5.2 0 0 0-9.88 1.63 2.14 2.14 0 0 0-1.33 1.94v.1a2.75 2.75 0 0 0 1.23 5.1H53.7a2.75 2.75 0 0 0 .3-5.4"/>
    <path fill="#823939" d="M108.16 71.16l6.12.3 1.73-4.48 2.35.5-2.04 7.04-5.92.51-2.24-3.87"/>
    <path fill="#f47720" d="M35.77 105.62l41.6 3.57-11.12 9.28zm92.38 0l-41.5 3.57 11.11 9.28z"/>
    <path fill="#f8a51d" d="M66.25 115.51l15.7 5.5v-31.9z"/>
    <path fill="#fabd1b" d="M97.76 115.41l-15.8 5.5v-31.9z"/>
    <path fill="#672e2d" d="M106.94 88.5l.2 12.02-2.45 11.73h4.6l2.54-10.2-.4-13.97-4.5.41"/>
    <path fill="#672e2d" d="M102.55 88.4l-1.32 12.12-2.45 11.73h4.59l2.55-10.2 1.63-13.97-5 .31"/>
    <path fill="#823939" d="M108.87 71.36l.62.2.5 1.03h-.7l-.42-1.23"/>
    <path fill="#823939" d="M103.67 70.95s8.47-2.44 7.75 4.9l-.1 12.44-1.73 1.63-1.02-1.53-.92 1.73-5.4-.4.91-11.02s-.7-7.64.51-7.75"/>
    <path fill="#f6fcfe" d="M107.14 71.97l-.3.41s2.14 5.3 2.44 7.45l-.3-7.65-.62.1-1.22-.3"/>
    <path fill="#823939" d="M104.7 96.96l.81 7.13s-6.83-5-7.34-7.44l-.1-4.08 6.62 4.39"/>
    <path fill="#944b4f" d="M104.39 96.14l.3-2.04 1.84.51.2.1s1.13 7.75.62 9.18l-1.84.2s-1.33-4.08-1.12-7.95"/>
    <path fill="#823939" d="M99.5 89.1l7.23 5.61h-1.12c-.3 0-.81.41-.81.41l-6.63-5.81.81-.2h.51"/>
    <path fill="#9a3d3b" d="M104.8 95.12l-.31 1.33.1 2.44-6.93-6.22c-.1-2.04.5-3.36.5-3.36l6.64 5.81"/>
    <path fill="#9bb1b8" d="M102.76 96.75s.91.41.81.82l-.1.71-.71-.61c0-.2-.2-.61 0-.92m-4.18-3.87s.6.5.6.81l-.2.82s-.4-.2-.5-.51c0 0-.1-.82.1-1.12"/>
    <path fill="#9a3d3b" d="M102.96 97.06l.4.3-.1.62-.4-.41.1-.51m-4.28-3.78l.2.31v.51l-.3-.3.1-.52"/>
    <path fill="#672e2d" d="M104.18 93.28s.41-1.73.1-2.03c0-.1-2.44-1.94-2.85-1.64l-.4 1.23.3.4s.4-.91.61-.91a13 13 0 0 1 1.73 1.02s.31.6.1 1.43c0 0-.1.3.31.4"/>
    <path fill="#fac182" d="M109.28 70.34l-.92 1.94-2.24-1.43.61-2.24 2.55 1.73"/>
    <path fill="#fac182" d="M107.45 64.53s-2.65 3.26 1.12 6.32c.5.41 2.85.2 2.85.2s-.1-.5.1-2.75l.92-.4-.91-2.15-.1-1.53s-2.86-1.42-3.98.31"/>
    <path fill="#702e27" d="M107.96 64.33s.3-.72 1.63 0c.71.3 2.85.6 3.06-.92 0 0-.51.3-1.23-.51 0 0-3.46-2.14-4.79-.1 0 0-2.96.91-1.12 5.2l.71 1.43 1.43.2-.61-2.45s-.1-1.02.82-.92c0 0 .3.31.3 1.23l.51-.1v-1.23c0-1.12-1.02-.92-.71-1.83"/>
    <path fill="#d8e2e4" d="M107.55 71.26l-.61.71 1.42.31-.5-1.02h-.31"/>
    <path fill="#f6fcfe" d="M106.12 70.04l-.92.71 1.53 1.73 1.13-1.22-1.74-1.22"/>
    <path fill="#d8e2e4" d="M108.77 71.46l-.4.82.6-.1z"/>
    <path fill="#f6fcfe" d="M108.77 71.46l.41 1.13.3-.62-.6-.81-.1.3"/>
    <path fill="#bec7ca" d="M107.14 72.08l.92.2v.1l-1.02-.2.1-.1m1.84.1l-.51.1v.1l.5-.1v-.1"/>
    <path fill="#6e3030" d="M108.16 73.6v2.35l1.12 3.98-.1-4.08-.4-2.24h-.62"/>
    <path fill="#6e3030" d="M105.61 74.52l.1-.1.92-.81-2.14-.41v-2.35h.2V73l2.45.51-.2.1-1.02.92 3.46 5.2s-3.77-5-3.77-5.2"/>
    <path fill="#6e3030" d="M109.28 79.72l.92-4.9-.82-1.32.62-.91.2.2-.51.71.71 1.33-1.12 4.9m-1.22-7.45l-.4.92.5.5.61-.1.2-.4-.4-.92h-.51"/>
    <path fill="#fac182" d="M101.13 88.6l.2.5s-.3.41-.1 1.02l.3.82s1.74.82 2.14.4v-1.73s-.3-.71-1.02-.91l-.1-.3-1.42.2"/>
    <path fill="#f6fcfe" d="M100.51 88.4l.2.8 2.56-.7-.2-.82-2.56.71"/>
    <path fill="#823939" d="M103.37 71.06s.81.71 1.32 5l-2.44 3.87 1.12 7.85-3.06.92s-1.73-6.94-1.53-9.28c.3-2.35 2.96-6.94 4.59-8.36"/>
    <path fill="#6e3030" d="M101.02 87.88a.3.3 0 1 1-.5 0 .3.3 0 0 1 .5 0m8.16-1.83l-.61 2.34.61-4.18.1-4.38V79c0 .2.2 3.16.1 5.2l-.2 1.84"/>
    <path fill="#f47720" d="M81.96 115.51l-15.7 15.7h31.5z"/>
    <path fill="#f78f1f" d="M35.77 105.62l30.48 25.6 15.7-15.7zm92.38 0l-30.39 25.6-15.8-15.7z"/>
    <path fill="#fff" d="M97.76 131.52h-31.5a.3.3 0 1 1 0-.5h31.5a.3.3 0 1 1 0 .5"/>
    <path fill="#f6fcfe" d="M116.22 67.08l.2-.71 2.04.4-.3.72-1.94-.41"/>
    <path fill="#3f4f69" d="M119.58 65.14h-6.83a.61.61 0 0 0 0 1.23h6.83v-1.23"/>
    <path fill="#3f4f69" d="M126.2 64.73h-6a1.02 1.02 0 0 0 0 2.04h6v-2.04"/>
    <path fill="#fac182" d="M116.42 65.14s.3-.6.82-.6l1.73.3s.2.4 0 .6l-2.04-.3h-.51m1.22.51s-1.12.1-1.22.72l1.02.2.1-.4s.61-.21.51-.62l-.4.1"/>
    <path fill="#fac182" d="M117.44 66.26v.31l.92.2.2-.4h-1.02l-.1-.1"/>
    <path fill="#4f6283" d="M126.51 66.98h-1.01v-2.45h1.01v2.45"/>
  </g>
</svg>
