<svg viewBox="0 0 125 113">
  <defs>
    <linearGradient id="b">
      <stop offset="0" stop-color="#d6683a"/>
      <stop offset="1" stop-color="#ce3476"/>
    </linearGradient>
  </defs>
  <path fill="none" stroke="url(#b)" stroke-linejoin="round" stroke-width="3" d="M52 4l22 22 46 10-38 13 39 21-33 5-25 7 19-33-32 11-15 6V53L4 51l50-19zm40 105L74 99l14-15"/>
  <path fill="none" stroke="url(#b)" stroke-linejoin="round" stroke-width="3" d="M101 13L74 26l8 23 6 26-1 21M12 74l42-42-5 28v27"/>
  <path fill="none" stroke="url(#b)" stroke-linejoin="round" stroke-width="3" d="M30 76l5-10m0-40L52 4M18 21l36 11 28 17"/>
  <path fill="none" stroke="url(#b)" stroke-linejoin="round" stroke-width="3" d="M18 21L52 4l49 9 19 23 1 34-4 15-30 11 5 13-12 1-6-11-11-17-14 5-19-11-18-2-8-23z"/>
  <path fill="url(#b)" d="M52 0a4 4 0 0 0-4 4 4 4 0 0 0 4 4 4 4 0 0 0 4-4 4 4 0 0 0-4-4zm49 9a4 4 0 0 0-4 4 4 4 0 0 0 4 4 4 4 0 0 0 4-4 4 4 0 0 0-4-4zm-83 8a4 4 0 0 0-4 4 4 4 0 0 0 4 4 4 4 0 0 0 4-4 4 4 0 0 0-4-4zm56 5a4 4 0 0 0-4 4 4 4 0 0 0 4 4 4 4 0 0 0 4-4 4 4 0 0 0-4-4zm-21 7a4 4 0 0 0-4 4 4 4 0 0 0 4 4 4 4 0 0 0 4-4 4 4 0 0 0-4-4zm67 3a4 4 0 0 0-4 4 4 4 0 0 0 4 4 4 4 0 0 0 4-4 4 4 0 0 0-4-4zM82 44a4 4 0 0 0-4 4 4 4 0 0 0 4 4 4 4 0 0 0 4-4 4 4 0 0 0-4-4zM4 47a4 4 0 0 0-4 4 4 4 0 0 0 4 4 4 4 0 0 0 4-4 4 4 0 0 0-4-4zm29 2a4 4 0 0 0-4 4 4 4 0 0 0 4 4 4 4 0 0 0 4-4 4 4 0 0 0-4-4zm17 7a4 4 0 0 0-4 4 4 4 0 0 0 4 4 4 4 0 0 0 4-4 4 4 0 0 0-4-4zm71 9a4 4 0 0 0-4 4 4 4 0 0 0 4 4 4 4 0 0 0 4-4 4 4 0 0 0-4-4zM13 69a4 4 0 0 0-4 4 4 4 0 0 0 4 4 4 4 0 0 0 4-4 4 4 0 0 0-4-4zm75 2a4 4 0 0 0-4 4 4 4 0 0 0 4 4 4 4 0 0 0 4-4 4 4 0 0 0-4-4zm-58 1a4 4 0 0 0-4 4 4 4 0 0 0 4 4 4 4 0 0 0 4-4 4 4 0 0 0-4-4zm35 6a4 4 0 0 0-4 4 4 4 0 0 0 4 4 4 4 0 0 0 4-4 4 4 0 0 0-4-4zm10 16a4 4 0 0 0-4 4 4 4 0 0 0 4 4 4 4 0 0 0 4-4 4 4 0 0 0-4-4zm17 11a4 4 0 0 0-4 4 4 4 0 0 0 4 4 4 4 0 0 0 4-4 4 4 0 0 0-4-4z"/>
</svg>
