<svg viewBox="0 0 87.5 45.8">
  <path d="M43.7 16.3a11.4 11.4 0 1 0 0 22.8 11.4 11.4 0 0 0 0-22.8zm4.5 4.9a2.8 2.8 0 1 1 0 5.5 2.8 2.8 0 0 1 0-5.5z" fill="#fff"/>
  <path d="M7 29s12-17.3 36.6-17.3A49.3 49.3 0 0 1 81 28.1s-17.3 16-37.4 16A62 62 0 0 1 7 28.8z" fill="none" stroke="#fff" stroke-width="3.5" stroke-linejoin="round" stroke-miterlimit="4.6"/>
  <path d="M6 24L1 19.5M11 19.3l-4.4-5.1M17 15l-3.7-5.4" fill="none" stroke="#fff" stroke-width="2.3" stroke-linecap="round" stroke-linejoin="round"/>
  <path d="M23 11.8L20.1 6M29.7 9.4l-2-6" fill="none" stroke="#fff" stroke-width="2.2" stroke-linecap="round" stroke-linejoin="round"/>
  <path d="M36.5 8l-1-6.5M44 7.5V.8M51 8l.8-6.6M58 9.2l1.4-6.6M64.7 11.6L67 5.5" fill="none" stroke="#fff" stroke-width="2.3" stroke-linecap="round" stroke-linejoin="round"/>
  <path d="M70.8 14.7L73.7 9M76.6 18.6l3.6-5.2" fill="none" stroke="#fff" stroke-width="2.2" stroke-linecap="round" stroke-linejoin="round"/>
  <path d="M81.7 23l4.7-4.5" fill="none" stroke="#fff" stroke-width="2.3" stroke-linecap="round" stroke-linejoin="round"/>
</svg>