<svg viewBox="0 0 129.9 140.5">
  <circle cx="27.7" cy="12.5" r="11" fill="none" stroke="currentColor" stroke-width="2.8"/>
  <circle cx="102.4" cy="12.5" r="11" fill="none" stroke="currentColor" stroke-width="2.8"/>
  <circle cx="27.8" cy="92.1" r="11" fill="none" stroke="currentColor" stroke-width="2.8"/>
  <circle cx="102.2" cy="92.1" r="11" fill="none" stroke="currentColor" stroke-width="4"/>
  <path fill="none" stroke="currentColor" stroke-linecap="round" stroke-linejoin="round" stroke-width="4" d="M88.9 106s-11.7 5.2-12 13.5l-.6 17s1 2 3.2 2.5c2.2.4 46.2-.2 46.2-.2s.6.5 2.9-2.4l-.2-16.3c0-6.3-12.1-14.5-12.1-14.5M14 105.7S2.3 111 2 119.2l-.6 17s.9 2 3.1 2.5c2.3.4 46.3-.2 46.3-.2s.6.5 2.8-2.4l-.1-16.3c0-6.3-12.1-14.5-12.1-14.5M88.7 26s-11.7 5.3-12 13.6l-.6 17s1 2 3.2 2.4c2.2.5 46.2-.1 46.2-.1s.6.4 2.9-2.4l-.2-16.3c0-6.4-12-14.6-12-14.6M14 26S2.1 31 2 39.4l-.7 17.1s1 2 3.2 2.4c2.2.4 46.3-.2 46.3-.2s.6.5 2.8-2.3L53.5 40c-.1-6.3-12.2-14.5-12.2-14.5"/>
  <path fill="none" stroke="currentColor" stroke-width="4" d="M77 58.6L65 71 52.6 58M48.2 111.1l16.4-16L81.4 111M65 71l-.4 24"/>
</svg>
