<svg viewBox="0 0 420 384"><path d="M19.7 1.8C19.5 2.9 18 4 16.2 4.3c-5 1-12.7 8.3-13.7 12.9-.4 1.5-1.1 3-1.6 3.3-1.2.8-1.2 343.2 0 343.9.5.3 1.1 2.1 1.5 3.8.9 5 8.5 12.4 13.7 13.5 1.6.3 3.2 1 3.5 1.4.7 1.2 342.1 1.2 342.8 0a9 9 0 0 1 3.6-1.5c4.6-.9 12.2-8.5 14.3-14.4 1.6-4.7 1.7-15.6 1.7-174.2s-.1-169.5-1.7-174.2c-2.2-5.9-9.7-13.5-14.4-14.5-1.9-.3-3.4-1.3-3.6-2.5C361.8.1 356.3 0 191 0S20.2.1 19.7 1.8zM97 53.2c2.7 1.2 5 2.5 5 3 0 .4.6.8 1.3.8 1.9 0 10.1 8.5 12 12.3a32 32 0 0 1 4.7 18c0 6.6-.4 8.4-3.3 13.9a39 39 0 0 1-17.5 17.5c-5.7 3-7.2 3.3-14.7 3.3-7.5 0-9-.3-14.8-3.4a38.8 38.8 0 0 1-17.8-18.2c-3-6-3.1-6.8-2.7-15.1.4-7.1 1-9.8 3.2-14 3.8-7 10.7-13.7 18-17.3a33.7 33.7 0 0 1 26.6-.8zM276.5 139l8.7 1.9c4.3.9 6.4 1.7 10.8 4.3l3.9 1.8c6.5 2.8 21.1 22 21.1 27.8 0 1 .5 2.3 1 2.8.6.6 1.5 3.3 2 6l1.9 9.4c1.5 6.9 1.4 133.3-.1 134.8-1.8 1.8-55.1 1.7-56.6-.1-.7-.8-1.2-20-1.5-56.7-.5-56.8-.8-62.1-4.6-69-1.6-2.8-7-8-8.4-8-.5 0-2.4-.7-4.2-1.6a19.4 19.4 0 0 0-9.7-1.1c-10.8.8-15.5 2.6-20.7 7.8-6 6.1-6.4 6.6-8.3 11.9-3.5 9.3-4 16.3-4.5 66-.3 31.9-.8 49.9-1.5 50.8-1.5 1.7-54.8 1.8-56.6 0-.9-.9-1.2-22.5-1.2-91.2 0-49.6.4-90.7.8-91.4.7-.9 6.9-1.2 27.8-1l26.9.3.5 11.5c.5 11 .6 11.3 2.1 9a68.6 68.6 0 0 1 34-24c.8 0 3.2-.7 5.4-1.5 4.6-1.6 24.6-2 31-.5zm-162.7 96.4c.1 66.3-.1 91.2-.9 92.2-1.6 1.9-54.9 2-56.7.2-.9-.9-1.2-22.7-1.2-91.8 0-49.9.3-91 .7-91.3.4-.4 13.5-.6 29.2-.5l28.6.3.3 90.9z"/></svg>