<svg viewBox="0 0 97 97">
  <path d="M67.3 62.1a1.5 1.5 0 0 0-1.8 1 15 15 0 0 1-29.3-4.4V55h20.3a1.5 1.5 0 0 0 0-3H36.2v-7h20a1.5 1.5 0 0 0 0-3h-20v-3.7a15 15 0 0 1 29.2-4.4 1.5 1.5 0 1 0 3-.9 18 18 0 0 0-35.2 5.3V42h-3a1.5 1.5 0 0 0 0 3h3v7h-2.8a1.5 1.5 0 0 0 0 3h2.8v3.8A18 18 0 0 0 68.3 64a1.5 1.5 0 0 0-1-1.9z"/>
  <path d="M48.5 0A48.5 48.5 0 1 0 97 48.5 48.5 48.5 0 0 0 48.5 0zm0 94A45.5 45.5 0 1 1 94 48.5 45.5 45.5 0 0 1 48.5 94z"/>
  <path stroke="#fff" stroke-width="3" d="M14.2 14.2l68.6 68.6"/>
</svg>
