<svg viewBox="0 0 174.8 330.7">
  <path d="M124.97 183.07l49.83-17.47V0S52.24 1.67 0 0v125.6l110.17 56.53c4.53 2.27 10 2.67 14.8.94M13.5 298.13L.03 303.47 0 330.7h82.57l-58.94-32.03a12 12 0 0 0-10.13-.54"/>
  <g opacity=".5">
    <path fill="#f2fafc" d="M32 119.55c11.66-5.47 23.7-10.47 35.07-17.16 2.73-1.6 6.86-4.36 7.37-8.4.67-5.67-4.96-11.2-10.83-9.6-7.04 1.85-10.63 7.3-9.93 12.74-3.9-2.37-10.12-.54-11.91 4.23-.64 1.73-.38 3.94.32 5.67-1.28-.51-3.78.51-4.77 1.54-1.38 1.4-1.96 3.62-.96 5.31.38.61 1.18 1.29 1.18 1.29s-2.62 1.6-4.1 2.4a102.72 102.72 0 0 0-10.12 6.72"/>
    <path fill="#adcddb" d="M43.26 133.2l3.53 6.57 40.19-25.3z"/>
    <path fill="#c1dcea" d="M41.46 123.72l2.61 5.84 42.9-15.09z"/>
    <path fill="#def0f9" d="M44.29 115.6L87 114.47l-45.54 9.25z"/>
    <path fill="#def0f9" d="M86.98 114.47l-51.31 26.04 4.15-11.94z"/>
    <path fill="#adcddb" d="M28.87 54.44l2.38 4.42L58.1 41.95z"/>
    <path fill="#c1dcea" d="M27.7 48.12l1.72 3.9 28.68-10.1z"/>
    <path fill="#def0f9" d="M29.56 42.72l28.54-.77-30.4 6.17zm28.54-.77l-34.3 17.4 2.76-8z"/>
    <path fill="#adcddb" d="M133.53 91.39l2.33 4.32L162.3 79.1z"/>
    <path fill="#c1dcea" d="M132.38 85.17l1.68 3.84 28.23-9.92z"/>
    <path fill="#def0f9" d="M134.23 79.83l28.06-.72-29.94 6.06z"/>
    <path fill="#def0f9" d="M162.29 79.09l-33.76 17.1 2.74-7.85z"/>
    <path fill="#adcddb" d="M108.76 121.25l2.33 4.32 26.43-16.62z"/>
    <path fill="#c1dcea" d="M107.59 115.02l1.7 3.85 28.2-9.92z"/>
    <path fill="#def0f9" d="M109.44 109.7l28.05-.75-29.9 6.07zm28.05-.75l-33.7 17.1 2.72-7.85z"/>
    <path fill="#adcddb" d="M78.52 32.44l1.73 3.26 19.87-12.49z"/>
    <path fill="#c1dcea" d="M77.6 27.78l1.3 2.88 21.22-7.45z"/>
    <path fill="#def0f9" d="M79.03 23.74l21.09-.53-22.49 4.57zm21.09-.53L74.75 36.06l2.04-5.9z"/>
    <path fill="#00f" d="M85 82.64l6.4 11.9 72.5-45.65z"/>
    <path fill="#03f" d="M81.79 65.56l4.7 10.55 77.43-27.2z"/>
    <path fill="#06f" d="M86.88 50.93l77.01-2.04-82.1 16.67zm77.01-2.04L71.3 95.83l7.47-21.55z"/>
    <path fill="#ffe1bd" d="M113.9 26l-.19-.8.8-.2.24.78z"/>
    <path fill="#ff5e4c" d="M115.61 24.8l-2.93.82-.29-1.04 2.93-.81z"/>
    <path fill="#d1473d" d="M115.61 24.8l-2.93.82-.07-.24 2.93-.85z"/>
    <path fill="#ff5e4c" d="M119.1 24.1l-3.78 1.08-.43-1.58 3.77-1.06z"/>
    <path fill="#d1473d" d="M119.1 24.1l-3.78 1.08-.1-.4 3.78-1.06z"/>
    <path fill="#ff5e4c" d="M123.42 23.12l-5.43 1.53-.58-2.01 5.43-1.52z"/>
    <path fill="#d1473d" d="M123.42 23.12l-5.43 1.53-.15-.48 5.43-1.53z"/>
    <path fill="#f45347" d="M112.87 25.66l-.36.1-.33-1.2.36-.12zm10.79-2.47l-.91.26-.63-2.28.89-.24z"/>
    <path fill="#d1473d" d="M115.23 24.8h-.08l-.24-.91.05-.03zm2.66-.53h-.1l-.38-1.4h.07zm4.76-1.2l-.12.05-.48-1.78.1-.02z"/>
    <path fill="#ffe1bd" d="M114.19 24.55l-.22.2c-.33.19-.8.25-.97.12-.22-.16-.06-.5-.06-.5s0-.07.13-.14c.13-.13.41-.25.96-.32.22 0 .32.32.16.64"/>
    <path fill="#e8c5a0" d="M113.87 25.35l.16.64h-.1l-.12-.48z"/>
    <path fill="#ffe1bd" d="M113.64 25.2s-.06-.13-.19-.07c-.16.03-.06.42.2.42.19.03.38-.32.38-.32l-.29.1z"/>
    <path fill="#e8c5a0" d="M113.97 24.78c-.33.16-.8.22-.97.1-.22-.17-.06-.52-.06-.52s0-.06.13-.13c-.07.16-.1.39 0 .48.22.16.74.1.9.03"/>
    <path fill="#f4f4f4" d="M117.58 34.61a26.2 26.2 0 0 0-.99-4.3c-.57-1.66-1.86-4.67-1.86-4.67l-.73.23-.13.03s.2 3.52.45 6.05l-3.33-.7-.64-.13 1.7 3.36s4.96.74 5.28.58c.32-.2.25-.45.25-.45"/>
    <path fill="#eaeaea" d="M117.33 35.03c-.32.19-5.29-.55-5.29-.55l-1.7-3.36.65.13c.44.19 1.21.96 1.82 1.76a2.5 2.5 0 0 0 1.35 1.02c1.02.39 2.11.64 2.53.7.67.04.73.07.9-.12 0 0 .06.26-.26.45"/>
    <path fill="#f4f4f4" d="M105.16 41.3c.32.84.38 1.73.19 2.63-.39 1.73.06 1.86.06 1.86s2.34 1.47 4.33 2.11c1.4.42 2.6.32 2.56-1.21v-.3c-.06-3.48.64-3.64.83-7.58.2-4-.9-6.25-1.92-7.21-1.09-.96-2.56-1-5.28-.35-2.05.48-2.73 1.02-2.7 2.56 0 .48.07 1.09.23 1.86a30.1 30.1 0 0 0 1.7 5.63"/>
    <path fill="#e2e2e2" d="M105.16 41.3c.32.84.38 1.73.19 2.63-.39 1.73.06 1.86.06 1.86s2.34 1.47 4.33 2.11l1.82-.19.74-1.02v-.3a13.61 13.61 0 0 1-5.5-.73 1.06 1.06 0 0 1-.65-1.18c.1-.68.26-1.67.26-2.44s-.39-2.08-.64-3.01a5.85 5.85 0 0 1-.3-2.24c.1-1.28 0-2.5 0-2.5l-1.43-.8-.8.32c0 .48.06 1.09.22 1.86a30.1 30.1 0 0 0 1.7 5.63"/>
    <path fill="#ffe1bd" d="M127.74 61.2l.96.86 1.25-.22-.1-.13-.96-1.16-.93.52z"/>
    <path fill="#e8c8a6" d="M127.74 61.2l.96.86 1.25-.22-.1-.13-1.09.16-.64-.64-.16-.16z"/>
    <path fill="#191919" d="M128.63 62.03l1.16-.45 2.66-.29s.32-.06.38.2c.03.15-.2.25-.2.25l-3.7 1.47s-.55-.51-.3-1.18"/>
    <path fill="#ffe1bd" d="M98.98 72.76l.5.1.4-.33.15-.16.9-1.6-1.35.35-.22.07z"/>
    <path fill="#e8c8a6" d="M98.91 72.92l1.28-.39.13-.12-.96.06.22-1.35-.22.07z"/>
    <path fill="#232323" d="M105.86 48.32a15.7 15.7 0 0 0 3.78 2.08c.67.32 1.41.58 2.15.87a86.55 86.55 0 0 0 6.72 2.3 2.02 2.02 0 0 1 1.19.96c1.8 3.27 8.36 7.05 8.36 7.05l.32-.32.74-.61s-4.97-7.37-7.18-9.26c-2.2-1.89-9.6-6.56-9.6-6.56-3.98 1.21-6.93.96-6.93.96s-.64 1.63.45 2.53"/>
    <path fill="#282828" d="M109.64 50.4c.67.32 1.41.58 2.15.87a86.55 86.55 0 0 0 6.72 2.3 2.02 2.02 0 0 1 1.19.96c1.8 3.27 8.36 7.05 8.36 7.05l.32-.32a76.12 76.12 0 0 1-5.32-4.1c-1.28-1.28-1.98-3.75-3.84-4.32-1.9-.61-8.84-3.66-8.84-3.66z"/>
    <path fill="#282828" d="M109.16 50.18a48.69 48.69 0 0 0 2.63 1.09l.35-4.55-2.82 1.18z"/>
    <path fill="#232323" d="M112.4 45.92s-3.11 9.51-4.36 11.82l-.42.6c-.32.36-.77 1.19-1.31 2.25l-.03.06-.26.45-.16.32-4.93 9.45-1.15.32-.52.16v-.13c1.54-9.8 3.46-12.33 4.1-13.13.48-.61.7-1.28.77-1.6l.03-.07v-.1l.2-.89c.22-1.19.41-2.98.57-4.61l-.1-.13a4 4 0 0 1 .58-4.9h.52a39.04 39.04 0 0 0 .86 0z"/>
    <path fill="#282828" d="M106.5 50.2c.16.43.2.84.1 1.29l-.96 4a6.2 6.2 0 0 1-1.54 2.76 11.92 11.92 0 0 0-2.21 3.07c-1.22 2.76-2.02 8.97-2.11 9.9l-.52.13v-.13c1.54-9.8 3.46-12.33 4.1-13.13.48-.61.7-1.28.77-1.6l.03-.07v-.1l.2-.89a55.1 55.1 0 0 0 .57-4.61l-.1-.13a4 4 0 0 1 .58-4.9h1.25a5.7 5.7 0 0 0-.16 4.42"/>
    <path fill="#ffe1bd" d="M104.96 46.75l.42.58s.39-.26.7.41c.36.64-.73 1.22-1.08.9a6.73 6.73 0 0 1-.84-1.28z"/>
    <path fill="#f4d5b5" d="M105.12 48.7c-.19 0-.6-.73-.6-.73l.19-.23c.1-.13.22-.25.38-.32h.03c.17 0 .33 0 .39.16.13.2.32.39.54.39.23 0-.76.7-.96.73"/>
    <path fill="#f4f4f4" d="M101.99 44.96a29.18 29.18 0 0 1 2.24 2.62l.16-.13.8-.54s-1.6-3.4-2.08-5.03a5.82 5.82 0 0 0-.96-1.92l.1-.1c1.18-1.28 2.07-2.88 2.78-3.84a4.1 4.1 0 0 0 .67-1.6c.07-.39.07-.77 0-1.16-.1-.64-.32-1.18-.96-1.34a.88.88 0 0 0-.64.06 1.3 1.3 0 0 0-.58.45c-.9 1.5-3.49 5.48-3.9 6.47l-.13.51v.2c-.2 1.6 1.4 4.26 2.5 5.35"/>
    <path fill="#eaeaea" d="M101.99 44.96a29.18 29.18 0 0 1 2.24 2.62l.16-.13s-1.19-1.66-1.73-2.33a16.56 16.56 0 0 1-1.99-2.76c-.51-.96-.73-2.75-.48-3.27a55.1 55.1 0 0 1 2.12-3.2c.32-.42 2.98-3.07 2.24-3.84a.58.58 0 0 0-.45-.07 1.3 1.3 0 0 0-.58.45c-.9 1.5-3.49 5.48-3.9 6.47l-.13.51v.2c-.2 1.6 1.4 4.26 2.5 5.35"/>
    <path fill="#632f00" d="M111.76 24.42s.16.52-.1.9l-1.12-1.5h.77z"/>
    <path fill="#ffe1bd" d="M105.64 26.44c.03 1.96 1.73 3.1 1.73 3.1l-.1 1.8 1.12.74.8.51.45-.96.07-1.15c0-.26.19-.48.48-.55a2.18 2.18 0 0 0 1.18-.76c.74-1 1.03-4.87-1.54-6-2.62-1.12-4.26 1.29-4.2 3.27"/>
    <path fill="#e8c5a0" d="M108.49 31l-.1 1.08.8.51.45-.96.07-1.15c0-.26.19-.48.48-.55a2.18 2.18 0 0 0 1.18-.76c-.06.03-.67.41-1.6.5a1.4 1.4 0 0 0-1.28 1.32"/>
    <path fill="#8c4200" d="M108.36 27.02c-.1.06-.2-.1-.2-.1s-.54-1.21-.73-1.4c-.32-.36-1.12-.33-1.18.73-.07.83.9 2.56 1.21 3.1.04.07 0 .2-.06.23a.26.26 0 0 1-.1.07c-.06 0-.1 0-.16-.07-.64-.54-3.4-3.2-1.18-5.7 0 0 1.73.13 2.02.96.25.83.44 1.99.44 1.99s.07.16-.06.22"/>
    <path fill="#8c4200" d="M111.76 24.42s-1.54-1.18-3.85.26L106 24.2s-.06 0-.03-.32c.03-.29.25-3.07 3.59-2.43 1.92.35 3.07 1.66 2.2 2.97"/>
    <path fill="#606060" d="M110.25 32.11v.1l-.16.48-.58.13-.48-.39.58-.64h.06a1.28 1.28 0 0 1 .58.32z"/>
    <path fill="#e2e2e2" d="M107.27 30.51s-.29.16-.54.54l.7.39 1.73 1.22.45-.9s-1.5-1.03-2.34-1.28m2.34 1.28s.48.2.64.54c0 0 .26-.48-.06-1.34 0 0-.3-.29-.48-.39z"/>
    <path fill="#606060" d="M110.09 32.69s.45 4.61-3.46 7.46l-.32-.58s3.4-2.2 3.2-6.75z"/>
    <path fill="#3a3a3a" d="M96.67 34.51l.13.42.35 1.03s4.26 2.53 8.78 1.76c4.51-.77 4.16-5.03 4.16-5.03h-.1l-.48.13c-.64 7.36-11.3 1.09-11.3 1.09z"/>
    <path fill="#282828" d="M96.83 34.93l.32 1.03s4.26 2.53 8.78 1.76c4.51-.77 4.16-5.03 4.16-5.03h-.1s.26 4.03-4.06 4.8c-4.36.74-9.13-2.56-9.13-2.56"/>
    <path fill="#191919" d="M103.08 72.28c-.07-.26-.39-.2-.39-.2l-2.66.3-1.12.12c-.54 1.03.23 1.47.23 1.47l3.71-1.44s.26-.1.23-.25"/>
    <path fill="#e5bb98" d="M105.57 47.45l.36.39c.1.06.1-.03.06-.1 0-.06-.38-.35-.42-.29"/>
    <path fill="#eaeaea" d="M114.83 32.3l-.51-.35c-.26-2.53-.45-6.05-.45-6.05l.13-.03s.38 5.6.83 6.4"/>
    <path fill="#632f00" d="M107.3 29.65c-.06 0-.1 0-.16-.07-.64-.54-3.4-3.2-1.18-5.7 0 0-.1.45-.07.8 0 0-1.4 2.24 1.41 4.97"/>
  </g>
</svg>
