<svg viewBox="0 0 585.2 493.1">
  <defs>
    <clipPath id="a">
      <path d="M0 0h500v500H0z"/>
    </clipPath>
    <clipPath id="b">
      <path d="M0 500h500V0H0z"/>
    </clipPath>
    <clipPath id="c">
      <path d="M304 300.8h58.5v-38.7H304z"/>
    </clipPath>
    <clipPath id="d">
      <path d="M302.5 308.5h9.3v-14.2h-9.3z"/>
    </clipPath>
    <clipPath id="e">
      <path d="M271.6 311.4h23v-79.8h-23z"/>
    </clipPath>
  </defs>
  <g clip-path="url(#a)" transform="matrix(1.33333 0 0 -1.33333 -46 517)">
    <path fill="#f2fafc" d="M61.6 81.1c36.4 17.1 74 32.7 109.5 53.6 8.5 5 21.4 13.6 23 26.2 2.1 17.7-15.5 35-33.8 30-22-5.8-33.2-22.8-31-39.8-12.2 7.4-31.6 1.7-37.2-13.2-2-5.4-1.2-12.3 1-17.7-4 1.6-11.8-1.6-14.9-4.8-4.3-4.4-6.1-11.3-3-16.6 1.2-1.9 3.7-4 3.7-4s-8.2-5-12.8-7.5c-11-6.2-21.5-13.6-31.6-21"/>
  </g>
  <path fill="#adcddb" d="M83 465.7L97.7 493 265 387.7z"/>
  <path fill="#c1dcea" d="M75.5 426.2l10.9 24.3L265 387.7z"/>
  <path fill="#def0f9" d="M87.3 392.4l177.8-4.7-189.6 38.5z"/>
  <path fill="#def0f9" d="M265 387.7L51.4 496.1l17.3-49.7z"/>
  <path fill="#adcddb" d="M23.1 137.8l9.9 18.4 111.8-70.4z"/>
  <path fill="#c1dcea" d="M18.2 111.5l7.2 16.2 119.4-42z"/>
  <path fill="#def0f9" d="M26 89l118.8-3.2-126.6 25.7zM144.8 85.8L2 158.2l11.5-33.3z"/>
  <path fill="#adcddb" d="M458.8 291.6l9.7 18 110-69.2z"/>
  <path fill="#c1dcea" d="M454 265.7l7 16 117.5-41.3z"/>
  <path fill="#def0f9" d="M461.7 243.5l116.8-3-124.6 25.2z"/>
  <path fill="#def0f9" d="M578.5 240.4L438 311.6l11.4-32.7z"/>
  <path fill="#adcddb" d="M355.7 415.9l9.7 18 110-69.2z"/>
  <path fill="#c1dcea" d="M350.8 390l7.1 16 117.4-41.3z"/>
  <path fill="#def0f9" d="M358.5 367.8l116.8-3.1L350.8 390zM475.3 364.7L335 435.9l11.3-32.7z"/>
  <path fill="#adcddb" d="M229.8 46.2l7.2 13.6 82.7-52z"/>
  <path fill="#c1dcea" d="M226 26.8l5.4 12 88.3-31z"/>
  <path fill="#def0f9" d="M231.9 10l87.8-2.2-93.6 19zM319.7 7.8L214.1 61.3l8.5-24.6z"/>
  <path fill="#00f" d="M256.8 255.2l26.6 49.5 301.8-190z"/>
  <path fill="#03f" d="M243.4 184.1L263 228l322.3-113.2z"/>
  <path fill="#06f" d="M264.6 123.2l320.6-8.5-341.8 69.4zM585.2 114.7L199.7 310.1l31.1-89.7z"/>
  <path fill="#ffe1bd" d="M377.1 19.4l-.8-3.3 3.3-.9 1 3.3z"/>
  <path fill="#ff5e4c" d="M384.2 14.4L372 17.8l-1.2-4.3 12.2-3.4z"/>
  <path fill="#d1473d" d="M384.2 14.4L372 17.8l-.3-1 12.2-3.5z"/>
  <path fill="#ff5e4c" d="M398.7 11.5L383 16l-1.8-6.6L396.9 5z"/>
  <path fill="#d1473d" d="M398.7 11.5L383 16l-.4-1.7 15.7-4.4z"/>
  <path fill="#ff5e4c" d="M416.7 7.4l-22.6 6.4-2.4-8.4 22.6-6.3z"/>
  <path fill="#d1473d" d="M416.7 7.4l-22.6 6.4-.6-2 22.6-6.4z"/>
  <path fill="#f45347" d="M372.8 18l-1.5.4-1.4-5 1.5-.5zM417.7 7.7l-3.8 1.1-2.6-9.5 3.7-1z"/>
  <path fill="#d1473d" d="M382.6 14.4h-.3l-1-3.8.2-.1zM393.7 12.2h-.4l-1.6-5.8h.3zM413.5 7.2l-.5.2-2-7.4.4-.1z"/>
  <g clip-path="url(#b)" transform="matrix(1.33333 0 0 -1.33333 -46 517)">
    <path fill="#ffe1bd" d="M318.2 377.7l-.7-.6c-1-.6-2.5-.8-3-.4-.7.5-.2 1.6-.2 1.6s0 .2.4.4c.4.4 1.3.8 3 1 .7 0 1-1 .5-2"/>
    <path fill="#e8c5a0" d="M317.2 375.2l.5-2h-.3l-.4 1.5z"/>
    <path fill="#ffe1bd" d="M316.5 375.7s-.2.4-.6.2c-.5-.1-.2-1.3.6-1.3.6-.1 1.2 1 1.2 1l-.9-.3z"/>
    <path fill="#e8c5a0" d="M317.5 377c-1-.5-2.5-.7-3-.3-.7.5-.2 1.6-.2 1.6s0 .2.4.4c-.2-.5-.3-1.2 0-1.5.7-.5 2.3-.3 2.8-.1"/>
    <path fill="#f4f4f4" d="M328.8 346.3c-.4 3.8-2 10-3.1 13.4-1.8 5.2-5.8 14.6-5.8 14.6l-2.3-.7-.4-.1s.6-11 1.4-18.9l-10.4 2.2-2 .4 5.3-10.5s15.5-2.3 16.5-1.8c1 .6.8 1.4.8 1.4"/>
    <path fill="#eaeaea" d="M328 345c-1-.6-16.5 1.7-16.5 1.7l-5.3 10.5 2-.4c1.4-.6 3.8-3 5.7-5.5a7.8 7.8 0 0 1 4.2-3.2c3.2-1.2 6.6-2 7.9-2.2 2.1-.1 2.3-.2 2.8.4 0 0 .2-.8-.8-1.4"/>
    <path fill="#f4f4f4" d="M290 325.4c1-2.6 1.2-5.4.6-8.2-1.2-5.4.2-5.8.2-5.8s7.3-4.6 13.5-6.6c4.4-1.3 8.1-1 8 3.8v.9c-.2 10.9 2 11.4 2.6 23.7.6 12.5-2.8 19.5-6 22.5-3.4 3-8 3.1-16.5 1.1-6.4-1.5-8.5-3.2-8.4-8 0-1.5.2-3.4.7-5.8 1-6 3.5-13.1 5.3-17.6"/>
    <path fill="#e2e2e2" d="M290 325.4c1-2.6 1.2-5.4.6-8.2-1.2-5.4.2-5.8.2-5.8s7.3-4.6 13.5-6.6l5.7.6 2.3 3.2v.9a42.5 42.5 0 0 0-17.2 2.3 3.3 3.3 0 0 0-2 3.7c.3 2.1.8 5.2.8 7.6 0 2.4-1.2 6.5-2 9.4-.8 2.2-1 4.6-.9 7 .3 4 0 7.8 0 7.8l-4.5 2.5-2.5-1c0-1.5.2-3.4.7-5.8 1-6 3.5-13.1 5.3-17.6"/>
    <path fill="#ffe1bd" d="M360.5 263.3l3-2.7 3.9.7-.3.4-3 3.6-2.9-1.6z"/>
    <path fill="#e8c8a6" d="M360.5 263.3l3-2.7 3.9.7-.3.4-3.4-.5-2 2-.5.5z"/>
    <path fill="#191919" d="M363.3 260.7l3.6 1.4 8.3.9s1 .2 1.2-.6c.1-.5-.6-.8-.6-.8l-11.6-4.6s-1.7 1.6-.9 3.7"/>
    <path fill="#ffe1bd" d="M270.7 227.2l1.6-.3 1.2 1 .5.5 2.8 5-4.2-1.1-.7-.2z"/>
    <path fill="#e8c8a6" d="M270.5 226.7l4 1.2.4.4-3-.2.7 4.2-.7-.2z"/>
    <path fill="#232323" d="M292.2 303.5A49 49 0 0 1 304 297c2.1-1 4.4-1.8 6.7-2.7 8.2-3.2 16.8-6 21-7.2a6.3 6.3 0 0 0 3.7-3c5.6-10.2 26.1-22 26.1-22l1 1 2.3 1.9s-15.5 23-22.4 28.9c-6.9 5.9-30 20.5-30 20.5-12.4-3.8-21.6-3-21.6-3s-2-5.1 1.4-7.9"/>
    <g clip-path="url(#c)" opacity=".5">
      <path fill="#282828" d="M304 297c2.1-1 4.4-1.8 6.7-2.7 8.2-3.2 16.8-6 21-7.2a6.3 6.3 0 0 0 3.7-3c5.6-10.2 26.1-22 26.1-22l1 1c-2.4 1.7-13 9.4-16.6 12.8-4 4-6.2 11.7-12 13.5-5.9 1.9-27.6 11.4-27.6 11.4z"/>
    </g>
    <g clip-path="url(#d)" opacity=".8">
      <path fill="#282828" d="M302.5 297.7a152 152 0 0 1 8.2-3.4l1.1 14.2-8.8-3.7z"/>
    </g>
    <path fill="#232323" d="M312.6 311s-9.7-29.7-13.6-36.9l-1.3-1.9c-1-1.1-2.4-3.7-4.1-7l-.1-.2-.8-1.4-.5-1-15.4-29.5-3.6-1-1.6-.5v.4c4.8 30.6 10.8 38.5 12.8 41 1.5 1.9 2.2 4 2.4 5l.1.2v.3l.6 2.8c.7 3.7 1.3 9.3 1.8 14.4l-.3.4a12.5 12.5 0 0 0 1.8 15.3h1.6a121.9 121.9 0 0 1 2.7 0z"/>
    <g clip-path="url(#e)" opacity=".5">
      <path fill="#282828" d="M294.2 297.6c.5-1.3.6-2.6.3-4l-3-12.5c-.8-3.2-2.5-6.2-4.8-8.6a37.2 37.2 0 0 1-6.9-9.6c-3.8-8.6-6.3-28-6.6-30.9l-1.6-.4v.4c4.8 30.6 10.8 38.5 12.8 41 1.5 1.9 2.2 4 2.4 5l.1.2v.3l.6 2.8a172 172 0 0 1 1.8 14.4l-.3.4a12.5 12.5 0 0 0 1.8 15.3h3.9c-.9-2-3-7.7-.5-13.8"/>
    </g>
    <path fill="#ffe1bd" d="M289.4 308.4l1.3-1.8s1.2.8 2.2-1.3c1.1-2-2.3-3.8-3.4-2.8a21 21 0 0 0-2.6 4z"/>
    <path fill="#f4d5b5" d="M289.9 302.3c-.6 0-1.9 2.3-1.9 2.3l.6.7c.3.4.7.8 1.2 1h.1c.5 0 1 0 1.2-.5.4-.6 1-1.2 1.7-1.2s-2.4-2.2-3-2.3"/>
    <path fill="#f4f4f4" d="M280.1 314c3.4-3.4 7-8.2 7-8.2l.5.4 2.5 1.7s-5 10.6-6.5 15.7c-.7 2.5-1.9 4.6-3 6l.3.3c3.7 4 6.5 9 8.7 12 1 1.5 1.8 3.2 2.1 5 .2 1.2.2 2.4 0 3.6-.3 2-1 3.7-3 4.2-.7.2-1.4.1-2-.2-.7-.2-1.3-.8-1.8-1.4-2.8-4.7-10.9-17.1-12.2-20.2l-.4-1.6v-.6c-.6-5 4.4-13.3 7.8-16.7"/>
    <path fill="#eaeaea" d="M280.1 314c3.4-3.4 7-8.2 7-8.2l.5.4s-3.7 5.2-5.4 7.3a51.7 51.7 0 0 0-6.2 8.6c-1.6 3-2.3 8.6-1.5 10.2a172 172 0 0 0 6.6 10c1 1.3 9.3 9.6 7 12-.5.3-1 .3-1.4.2-.7-.2-1.3-.8-1.8-1.4-2.8-4.7-10.9-17.1-12.2-20.2l-.4-1.6v-.6c-.6-5 4.4-13.3 7.8-16.7"/>
    <path fill="#632f00" d="M310.6 378.1s.5-1.6-.3-2.8l-3.5 4.7h2.4z"/>
    <path fill="#ffe1bd" d="M291.5 371.8c.1-6.1 5.4-9.7 5.4-9.7l-.3-5.6 3.5-2.3 2.5-1.6 1.4 3 .2 3.6c0 .8.6 1.5 1.5 1.7a6.8 6.8 0 0 1 3.7 2.4c2.3 3.1 3.2 15.2-4.8 18.7-8.2 3.5-13.3-4-13.1-10.2"/>
    <path fill="#e8c5a0" d="M300.4 357.6l-.3-3.4 2.5-1.6 1.4 3 .2 3.6c0 .8.6 1.5 1.5 1.7a6.8 6.8 0 0 1 3.7 2.4c-.2-.1-2.1-1.3-5-1.6-2.2-.2-3.9-2-4-4.1"/>
    <path fill="#8c4200" d="M300 370c-.3-.2-.6.3-.6.3s-1.7 3.8-2.3 4.4c-1 1.1-3.5 1-3.7-2.3-.2-2.6 2.8-8 3.8-9.7.1-.2 0-.6-.2-.7a.8.8 0 0 0-.3-.2c-.2 0-.3 0-.5.2-2 1.7-10.6 10-3.7 17.8 0 0 5.4-.4 6.3-3 .8-2.6 1.4-6.2 1.4-6.2s.2-.5-.2-.7"/>
    <path fill="#8c4200" d="M310.6 378.1s-4.8 3.7-12-.8l-6 1.5s-.2 0-.1 1c.1.9.8 9.6 11.2 7.6 6-1.1 9.6-5.2 6.9-9.3"/>
    <path fill="#606060" d="M305.9 354.1v-.3l-.5-1.5-1.8-.4-1.5 1.2 1.8 2h.2a4 4 0 0 0 1.8-1z"/>
    <path fill="#e2e2e2" d="M296.6 359.1s-.9-.5-1.7-1.7l2.2-1.2 5.4-3.8 1.4 2.8s-4.7 3.2-7.3 4M303.9 355.2s1.5-.6 2-1.7c0 0 .8 1.5-.2 4.2 0 0-.9.9-1.5 1.2z"/>
    <path fill="#606060" d="M305.4 352.3s1.4-14.4-10.8-23.3l-1 1.8s10.6 6.9 10 21.1z"/>
    <path fill="#3a3a3a" d="M263.5 346.6l.4-1.3 1.1-3.2s13.3-7.9 27.4-5.5c14.1 2.4 13 15.7 13 15.7h-.3l-1.5-.4c-2-23-35.3-3.4-35.3-3.4z"/>
    <path fill="#282828" d="M264 345.3l1-3.2s13.3-7.9 27.4-5.5c14.1 2.4 13 15.7 13 15.7h-.3s.8-12.6-12.7-15c-13.6-2.3-28.5 8-28.5 8"/>
    <path fill="#191919" d="M283.5 228.7c-.2.8-1.2.6-1.2.6l-8.3-.9-3.5-.4c-1.7-3.2.7-4.6.7-4.6l11.6 4.5s.8.3.7.8"/>
    <g>
      <path fill="#e5bb98" d="M291.3 306.2l1.1-1.2c.3-.2.3.1.2.3 0 .2-1.2 1.1-1.3.9"/>
    </g>
    <g>
      <path fill="#eaeaea" d="M320.2 353.5l-1.6 1.1c-.8 7.9-1.4 18.9-1.4 18.9l.4.1s1.2-17.5 2.6-20"/>
    </g>
    <g>
      <path fill="#632f00" d="M296.7 361.8c-.2 0-.3 0-.5.2-2 1.7-10.6 10-3.7 17.8 0 0-.3-1.4-.2-2.5 0 0-4.4-7 4.4-15.5"/>
    </g>
  </g>
</svg>
