<svg viewBox="0 0 535.2 629.4">
  <defs>
    <clipPath id="a">
      <path d="M3.7 0H500v424.3H3.7z"/>
    </clipPath>
    <clipPath id="b">
      <path d="M0 500h500V0H0z"/>
    </clipPath>
    <clipPath id="c">
      <path d="M392.1 439.7h9.8V294.1h-9.8z"/>
    </clipPath>
    <clipPath id="d">
      <path d="M444.1 439.7h9.8V294.1H444z"/>
    </clipPath>
    <clipPath id="e">
      <path d="M418.1 472h19.5V309.9H418z"/>
    </clipPath>
    <clipPath id="f">
      <path d="M418.1 426.5h10.5V290H418z"/>
    </clipPath>
  </defs>
  <path fill="#fff" stroke="#fff" stroke-miterlimit="10" stroke-width="4" d="M416.9 229v45m18.3-45v45"/>
  <path fill="#fff" stroke="#fff" stroke-miterlimit="10" stroke-width="16" d="M392.2 237.2v62.2m68.8-62.2v62.2"/>
  <g fill="#fff" clip-path="url(#a)" transform="matrix(1.33333 0 0 -1.33333 -131.5 629.4)">
    <path d="M420.8 254.2a17.7 17.7 0 1 0-35.4 0 17.7 17.7 0 0 0 35.4 0m-108-162.7a8.9 8.9 0 1 0-17.7 0 8.9 8.9 0 0 0 17.7 0m-48.3-42.8a10 10 0 1 0-20.2 0 10 10 0 0 0 20.2 0"/>
    <path d="M359.2 209.9a39.5 39.5 0 1 1 79 0 39.5 39.5 0 0 1-79 0M301 100.4a21.3 21.3 0 1 1 42.5 0 21.3 21.3 0 0 1-42.5 0"/>
    <path d="M382.5 163.1a15.5 15.5 0 1 0-16.6 26.3 15.5 15.5 0 0 0 16.6-26.3m-171.3-130a25 25 0 1 0-49.9 0 25 25 0 0 0 49.9 0m283.5 137.8a15.5 15.5 0 1 0-31 0 15.5 15.5 0 0 0 31 0M291.4 46.7a21.5 21.5 0 1 0-37.1 21.8 21.5 21.5 0 0 0 37-21.8m176.4 147.9a8.2 8.2 0 1 0-14.1 8.3 8.2 8.2 0 0 0 14.1-8.3M245.8 32.2a8.2 8.2 0 1 0-14 8.3 8.2 8.2 0 0 0 14-8.3"/>
    <path d="M210 24.8a8.2 8.2 0 1 0-14 8.4 8.2 8.2 0 0 0 14-8.4m94.7 84A8.2 8.2 0 1 0 289 104a8.2 8.2 0 0 0 15.7 4.8m92.6 134.8a15 15 0 1 0-18.6-23.6 15 15 0 0 0 18.6 23.6M183.4 25.4a15 15 0 1 0-26-15 15 15 0 0 0 26 15m272.7 205.4a15 15 0 1 0-26-15 15 15 0 0 0 26 15M309.6 126.4a4 4 0 1 0-6.8 4 4 4 0 0 0 6.8-4M133.4-2.6a10.6 10.6 0 1 0-18.3 10.8 10.6 10.6 0 0 0 18.3-10.8m76.4 61a8.2 8.2 0 1 0-16-4 8.2 8.2 0 0 0 16 4"/>
    <path d="M148.4 7.3a8.2 8.2 0 1 0-16-4 8.2 8.2 0 0 0 16 4"/>
    <path d="M160.6 15.5a8.2 8.2 0 1 0-15.8-4 8.2 8.2 0 0 0 15.8 4m38.1 8.2a8.2 8.2 0 1 0-15.9-4 8.2 8.2 0 0 0 15.9 4m282.6 168.9a8.2 8.2 0 1 0-15.9-4.1 8.2 8.2 0 0 0 15.9 4.1m-35.5 55.2a8.2 8.2 0 1 0-11.6-11.6 8.2 8.2 0 0 0 11.6 11.6m-43.8 16a5.1 5.1 0 1 0 2.3-10 5.1 5.1 0 0 0-2.4 10m13.9-4.5a5.1 5.1 0 1 0-1.6-10.1 5.1 5.1 0 0 0 1.6 10"/>
    <path d="M426.2 262.5a8.2 8.2 0 1 0-11.6-11.6 8.2 8.2 0 0 0 11.6 11.6m-16.2-7.6a8.2 8.2 0 1 0-11.6-11.6 8.2 8.2 0 0 0 11.6 11.6m49.8-39.2a8.2 8.2 0 1 0-11.6-11.6 8.2 8.2 0 0 0 11.6 11.6m-109 7.3a1.6 1.6 0 1 0-3.2 0 1.6 1.6 0 0 0 3.2 0m4.2-13.1a2.1 2.1 0 1 0-4.2 0 2.1 2.1 0 0 0 4.2 0M217.1 64a2.1 2.1 0 1 0-4.2 0 2.1 2.1 0 0 0 4.2 0M454 241.3a4.8 4.8 0 1 1 9.7 0 4.8 4.8 0 0 1-9.7 0m1.6 11.9a1 1 0 1 1 2 0 1 1 0 0 1-2 0m13.2-28.7a2.6 2.6 0 1 1-5.1 0 2.6 2.6 0 0 1 5.1 0m2.7-12.1a1.8 1.8 0 1 1-3.6 0 1.8 1.8 0 0 1 3.6 0m-136-26a1.5 1.5 0 1 0 3 0 1.5 1.5 0 0 0-3 0M222.6 54.9a1.5 1.5 0 1 0 3 0 1.5 1.5 0 0 0-3 0M337 201.4a3.3 3.3 0 1 0-6.6 0 3.3 3.3 0 0 0 6.6 0M201.4 49a3.3 3.3 0 1 0-6.6 0 3.3 3.3 0 0 0 6.6 0"/>
    <path d="M426.9 257.3a17.7 17.7 0 1 0-35.4 0 17.7 17.7 0 0 0 35.4 0M312.8 85.8a8.9 8.9 0 1 0-17.7 0 8.9 8.9 0 0 0 17.7 0m-30.2-41.3a8.9 8.9 0 1 0-17.7 0 8.9 8.9 0 0 0 17.7 0m95 144.1a21.3 21.3 0 1 1 42.5 0 21.3 21.3 0 0 1-42.5 0"/>
    <path d="M308.6 94.6a21.3 21.3 0 1 1 42.5 0 21.3 21.3 0 0 1-42.5 0m84.4 76.3a15.5 15.5 0 1 0-31 0 15.5 15.5 0 0 0 31 0M263.1 29a15.5 15.5 0 1 0-31 0 15.5 15.5 0 0 0 31 0m256.7 141.9a15.5 15.5 0 1 0-31 0 15.5 15.5 0 0 0 31 0"/>
    <path d="M382.1 140.7a15 15 0 1 0-26 15.3 15 15 0 0 0 26-15.3M293 56.4a15 15 0 1 0-26 15.3 15 15 0 0 0 26-15.3"/>
    <path d="M366.4 132.5a8.2 8.2 0 1 0-14.1 8.3 8.2 8.2 0 0 0 14.1-8.3M119-9.2a8.2 8.2 0 1 0-14.2 8.3A8.2 8.2 0 0 0 119-9.2m373.7 203.8a8.2 8.2 0 1 0-14.1 8.3 8.2 8.2 0 0 0 14.1-8.3M297.6 77.4a8.2 8.2 0 1 0-14.2 8.3 8.2 8.2 0 0 0 14.2-8.3m-26.7-45.2a8.2 8.2 0 1 0-14.2 8.3 8.2 8.2 0 0 0 14.2-8.3M237.1 28a15.5 15.5 0 1 0-26.7 15.7A15.5 15.5 0 0 0 237.1 28M408 244.4a8.2 8.2 0 1 0-15.7-4.8 8.2 8.2 0 0 0 15.7 4.8m3.4-18.7a15 15 0 1 0-26.1-15 15 15 0 0 0 26 15"/>
    <path d="M142.8 12.8a15 15 0 1 0-26-15 15 15 0 0 0 26 15m65.6 12.6a15 15 0 1 0-26-15 15 15 0 0 0 26 15m272.7 205.4a15 15 0 1 0-26-15 15 15 0 0 0 26 15M357.9 118.6a10.6 10.6 0 1 0-18.4 10.8 10.6 10.6 0 0 0 18.4-10.8"/>
    <path d="M158.5-2.6A10.6 10.6 0 1 0 140 8.2a10.6 10.6 0 0 0 18.4-10.8m186.5 155a8.2 8.2 0 1 0-16-4.1 8.2 8.2 0 0 0 16 4.1"/>
    <path d="M173.4 7.3a8.2 8.2 0 1 0-15.9-4 8.2 8.2 0 0 0 16 4"/>
    <path d="M185.7 15.5a8.2 8.2 0 1 0-16-4 8.2 8.2 0 0 0 16 4m38 8.2a8.2 8.2 0 1 0-15.8-4 8.2 8.2 0 0 0 15.8 4m282.6 168.9a8.2 8.2 0 1 0-15.8-4.1 8.2 8.2 0 0 0 15.8 4.1m-35.5 55.2a8.2 8.2 0 1 0-11.6-11.6 8.2 8.2 0 0 0 11.6 11.6"/>
    <path d="M456.8 255a8.2 8.2 0 1 0-11.6-11.6 8.2 8.2 0 0 0 11.6 11.6m-29.8 8.8a5.1 5.1 0 1 0 2.4-10 5.1 5.1 0 0 0-2.5 10"/>
    <path d="M423.6 272.5a5.1 5.1 0 1 0-1.5-10.1 5.1 5.1 0 0 0 1.5 10m17.2-13.1a5.1 5.1 0 1 0-1.5-10.1 5.1 5.1 0 0 0 1.5 10"/>
    <path d="M435 254.9a8.2 8.2 0 1 0-11.5-11.6 8.2 8.2 0 0 0 11.6 11.6m49.8-39.2a8.2 8.2 0 1 0-11.6-11.6 8.2 8.2 0 0 0 11.6 11.6M375.8 223a1.6 1.6 0 1 0-3.2 0 1.6 1.6 0 0 0 3.2 0m4.2-13.1a2.1 2.1 0 1 0-4.2 0 2.1 2.1 0 0 0 4.3 0M242.2 64a2.1 2.1 0 1 0-4.3 0 2.1 2.1 0 0 0 4.3 0M479 241.3a4.8 4.8 0 1 1 9.7 0 4.8 4.8 0 0 1-9.6 0m1.5 11.9a1 1 0 1 1 2.1 0 1 1 0 0 1-2 0m10.6-30a1.3 1.3 0 1 1-2.6 0 1.3 1.3 0 0 1 2.6 0m10.9-30.2a3.4 3.4 0 1 1-6.8 0 3.4 3.4 0 0 1 6.8 0m-141.6-6.6a1.5 1.5 0 1 0 3 0 1.5 1.5 0 0 0-3 0M269.1 85a1.5 1.5 0 1 0 3 0 1.5 1.5 0 0 0-3 0M362 201.4a3.3 3.3 0 1 0-6.6 0 3.3 3.3 0 0 0 6.7 0M226.4 49a3.3 3.3 0 1 0-6.6 0 3.3 3.3 0 0 0 6.6 0m117.1 67a3.3 3.3 0 1 0-6.6 0 3.3 3.3 0 0 0 6.6 0M105.2-3.2a3.3 3.3 0 1 0-6.6 0 3.3 3.3 0 0 0 6.6 0"/>
    <path d="M325.9 98.3l73 95 2.6 48 43.6 12.1 14.1-5.6 15.1-29.1 30-37.1V-3.8H120.7l95 25.5 46 7.3 17 42.6z"/>
    <path d="M395.4 224.5a4.8 4.8 0 1 1 9.6 0 4.8 4.8 0 0 1-9.6 0M141.8 33.4a4.8 4.8 0 1 1 9.6 0 4.8 4.8 0 0 1-9.6 0m230 206a4.8 4.8 0 1 1 9.6 0 4.8 4.8 0 0 1-9.6 0M346 168.6a4.8 4.8 0 1 1 9.6 0 4.8 4.8 0 0 1-9.6 0m58 47.6a1 1 0 1 1 2 0 1 1 0 0 1-2 0m3.3 25.1a1 1 0 1 1 2 0 1 1 0 0 1-2 0m-20.5 26.1a1 1 0 1 1 2.1 0 1 1 0 0 1-2 0"/>
  </g>
  <g clip-path="url(#b)" transform="matrix(1.33333 0 0 -1.33333 -131.5 629.4)">
    <g clip-path="url(#c)">
      <path fill="#fff" d="M400.1 296.5h-1.4l-2.4 3.6h2.4v119.8c0 3.7-3 19.8-6.6 19.8V294.1h9.8z"/>
    </g>
    <path fill="#fff" d="M398.7 300h-13.1v120c0 3.6 3 19.7 6.5 19.7 3.7 0 6.6-16.1 6.6-19.8z"/>
    <path fill="#4d3c8c" d="M398.7 416.5h-13.1v2.2h13.1zm0-72.5h-13.1v2.3h13.1zm0-4.4h-13.1v2.2h13.1z"/>
    <path fill="#5ec3ff" d="M398.7 296.5h-13.1l3.5 5.5h6z"/>
    <path fill="#6cb2ff" d="M401.9 294.1h-19.5l1.8 2.4H400z"/>
    <path fill="#4e3d8d" d="M398.7 300h-13.1v7.5h13.1z"/>
    <path fill="#fff" d="M450.7 300h-13.1v120c0 3.6 2.9 19.7 6.5 19.7s6.6-16.1 6.6-19.8z"/>
    <g clip-path="url(#d)">
      <path fill="#fff" d="M452 296.5h-1.3l-2.4 3.6h2.4v119.8c0 3.7-3 19.8-6.6 19.8V294.1h9.8z"/>
    </g>
    <path fill="#4c3c8b" d="M450.7 416.5h-13.1v2.2h13zm0-72.5h-13.1v2.3h13zm0-4.4h-13.1v2.2h13z"/>
    <path fill="#5ec3ff" d="M450.7 296.5h-13.1l3.5 5.5h6z"/>
    <path fill="#6db2ff" d="M453.9 294.1h-19.5l1.8 2.4H452z"/>
    <path fill="#4e4090" d="M450.7 300h-13.1v7.5h13z"/>
    <path fill="#98a0ff" d="M418.1 472c-10.7 0-19.4-27.7-19.4-35V323c0-7.3 8.7-13.2 19.4-13.2 10.8 0 19.5 5.9 19.5 13.2v114c0 7.3-8.7 35-19.5 35"/>
    <g clip-path="url(#e)">
      <path fill="#b8c5ff" d="M418.1 472V309.9c10.8 0 19.5 5.9 19.5 13.2v114c0 7.3-8.7 35-19.5 35"/>
    </g>
    <path fill="#4aeaff" d="M418.1 472c-6.6 0-12.4-10.4-15.9-20.2H434c-3.5 9.8-9.3 20.3-15.9 20.3"/>
    <path fill="#5fc6f7" d="M437.6 430.3h-38.9v1.4h38.9z"/>
    <path fill="#5dbaff" d="M418.1 386.2l-2.7-1.4 2.7-1.4zm-28.3-49.8l6 6.6c4.2 4.4 6 13.5 6 21.3 0 7 3 12.4 7.5 14.7l5.7 2.9v2.7l-9-4.6c-4.3-2.3-7.3-8.6-7.3-15.7 0-7.8-2.5-15.1-6.6-19.6l-6.1-6.6a68.6 68.6 0 0 1-15-28.3h4.5a64 64 0 0 0 14.3 26.6"/>
    <path fill="#53c9ff" d="M409.3 379c-4.4-2.3-7.5-7.6-7.5-14.8 0-7.7-1.8-16.8-6-21.2l-6-6.6a63.8 63.8 0 0 1-14.3-26.6H415v72z"/>
    <path fill="#5dbaff" d="M420.9 384.8l-2.8 1.4v-2.8zm6.1-5.8c4.4-2.3 7.4-7.6 7.4-14.8 0-7.7 1.8-16.8 6-21.2l6-6.6a65.2 65.2 0 0 0 14.4-26.6h4.4a68.6 68.6 0 0 1-15 28.3l-6 6.6a29.2 29.2 0 0 0-6.7 19.5c0 7.2-3 13.5-7.3 15.8l-9 4.6V382zm-8.9 4.4v2.8z"/>
    <path fill="#53c9ff" d="M415 385v-.4l.4.2zm3.1-1.6l-2.7 1.4-.4-.2V382zm-3.1-1.5v-72.1h3.1v73.6zm25.3-38.9c-4.1 4.4-5.9 13.5-5.9 21.2 0 7.2-3 12.5-7.4 14.8l-5.8 2.9v-72.1h39.6a63.8 63.8 0 0 1-14.3 26.6zm-22.2 40.4v-73.6h3.1v72zm0 0v-73.6 73.6z"/>
    <path fill="#59baff" d="M413.8 302.6h-5v5.5h5z"/>
    <path fill="#64afff" d="M415 300h-7.3l.6 2.6h6z"/>
    <path fill="#64b1ff" d="M427.3 302.6h-4.9v5.5h5z"/>
    <path fill="#63a1ff" d="M428.5 300h-7.3l.7 2.6h6z"/>
    <path fill="#fff" d="M428.5 308.1h-20.8v102.3c0 5.7 4.6 16 10.4 16 5.8 0 10.4-10.3 10.4-16z"/>
    <g clip-path="url(#f)">
      <path fill="#fff" d="M418.1 426.5V290c.4 0 .8.2 1 .7l.6 2V308h8.9v102.3c0 5.7-4.7 16-10.5 16"/>
    </g>
    <path fill="#4e3d8c" d="M425.5 402h-14.8v2.9a17.4 17.4 0 0 0 14.8 0z"/>
    <path fill="#6ab4ff" d="M428.6 324h-21v-16h21zm0 61.8h-21v.8h21zm0-27.5h-21v.7h21z"/>
    <path fill="#4e3d8c" d="M418.1 426.5c-3.1 0-5.9-3-7.8-6.7h15.6c-1.9 3.7-4.7 6.7-7.8 6.7"/>
    <path fill="#fff" d="M413.1 399.2h-.8v8h.8zm10.3 0h-.9v8h.9zM419.7 292.7l-.7-2a1 1 0 0 0-1.8 0l-.7 2v26.2l1.6 5 1.6-5v-26.2"/>
  </g>
</svg>
