<svg viewBox="0 0 174.8 330.7">
  <path fill="#98a3ab" d="M125 183.2l49.8-17.5V0H0v125.6l110.2 56.6a19 19 0 0 0 14.8 1m-111.5 115L0 303.7v27h82.6l-59-31.8a12 12 0 0 0-10.1-.5"/>
  <path fill="#fff" d="M31.2 87.5c-1.4 0-2.8.5-3.9 1.4-.3-.3-.8-.5-1.2-.5a1.9 1.9 0 0 0-1 3.3l-.2-.1a1.9 1.9 0 0 0-2.2 2.6 3 3 0 0 0-.8.6l-.2.2c0-1-1-1.8-2-1.8a2 2 0 0 0-1.5 1.6 3 3 0 0 0-5.1 2.6 3 3 0 0 0-4.8 3.7 5.5 5.5 0 0 0-3.6 7.4 3 3 0 0 0-1.7 4.1 3 3 0 0 0-2.4 3.8 3 3 0 0 0-.6-.4v10l110.2 56.5a19 19 0 0 0 14.8.9l2.9-1.2a3 3 0 0 0-3.6-1.5c-.3-1.3-1-2.6-2.1-3.4V176c-.4-6-6.2-10-11.9-8.2.3-3.6-4.9-4.6-5.9-1a3 3 0 0 0 1.9 3.6c-.7.7-1.3 1.6-1.7 2.5a5.7 5.7 0 0 0-4-3.3c-.4-.9-1.7-.9-2.1 0-1.6.2-3 1.2-3.9 2.6a3 3 0 0 0-1.7.1c-.5-.2-1-.4-1.5-.4a3.7 3.7 0 0 0-2.1-5.1 8.1 8.1 0 0 0-1.2-3.8 7.9 7.9 0 0 0-7.4-3.5c-1-.4-2-.5-3-.3A3 3 0 0 0 73 156a3.3 3.3 0 0 0-2-4 3 3 0 0 0 4.4-1.8c1-3.5-3.9-5.5-5.6-2.2a7.8 7.8 0 0 0-12.2-1.3 1.2 1.2 0 0 0-.5-2 4 4 0 0 0-4.5-5.5 3 3 0 0 0-1.4-3.4 5.5 5.5 0 0 0-3.4-7l.5-1.1c1.9-2 2-5 .6-7.2a.5.5 0 1 0-.7-.8l-.7-.6a19 19 0 0 0 1.6-3.6c.8.6 2 0 2-1 0-.8-.8-1.4-1.6-1.2l.2-1.9c0-4-1.7-7.9-4.7-10.6v-.2c0-1.3-1.2-2.1-2.4-1.6-1-.6-2-1-3-1.4a6.5 6.5 0 0 0-4.2-8.7 6.5 6.5 0 0 0-4.2-1.3zm8 2.4c-.3 0-.4.2-.4.3 0 .6.8.6.8 0a.4.4 0 0 0-.5-.3zM4.7 95c-.2 0-.4.2-.4.3 0 .6.8.6.8 0a.4.4 0 0 0-.4-.3zM4 98c-1 0-1.8.7-1.8 1.7 0 2.4 3.6 2.4 3.6 0 0-1-.8-1.7-1.8-1.8zm49.3 7.8c-.3 0-.5.3-.5.6 0 .8 1.1.8 1.1 0 0-.3-.2-.6-.6-.6zm-51.6 0c-.2 0-.4.3-.4.5 0 .7 1 .7 1 0a.5.5 0 0 0-.6-.4zm50.3 4.6c-.5 0-.8.4-.8.8 0 1 1.6 1 1.6 0 0-.4-.4-.8-.8-.8zm7 2.7c-.7 0-1.2.6-1.2 1.2 0 1.6 2.4 1.6 2.4 0 0-.7-.5-1.2-1.2-1.2zM0 116c0 143.1 0 71.6 0 0zm57.8 3.4c-.3 0-.5.2-.5.5 0 .7 1 .7 1 0 0-.3-.2-.5-.5-.5zm-5 5.3c-1 0-1.8.7-1.8 1.7 0 2.4 3.5 2.4 3.5 0 0-1-.7-1.7-1.7-1.7zm5 5.5a3 3 0 0 0-2.9 2.2c-1 4 5 5.5 5.9 1.5a3 3 0 0 0-3-3.7zm11.4 9.7c-1 0-1.7 1-1.4 2 .7 1.6 3.6-.2 2.5-1.5-.3-.3-.7-.5-1.1-.5zm13 16.6c-.4 0-.6.3-.6.6 0 .7 1 .7 1 0 0-.3-.2-.6-.5-.6zm11.1 7.5c-.4 0-.8.3-.8.8 0 1 1.6 1 1.6 0 0-.5-.4-.8-.8-.8zm9.2 0c-.4 0-.8.3-.8.8 0 1 1.6 1 1.6 0 0-.5-.4-.8-.8-.8zm-3.4 3.5c-.2 0-.5.3-.5.6 0 .7 1.1.7 1.1 0 0-.3-.2-.6-.6-.6zm28.5 6.7c-1 0-1.8.8-1.8 1.8 0 2.3 3.5 2.3 3.5 0 0-1-.7-1.8-1.7-1.8z"/>
  <path fill="#fff" stroke="#fff" stroke-miterlimit="10" stroke-width="1.1" d="M30.6 78.2v12.4m-5-12.4v12.4"/>
  <path fill="#fff" stroke="#fff" stroke-miterlimit="10" stroke-width="4.4" d="M37.4 80.5v17m-19-17v17"/>
  <path fill="#fff" d="M34.7 79.6h.5l.9-1.3h-.9v-44c0-1.3 1.1-7.2 2.4-7.2v53.4H34z"/>
  <path fill="#fff" d="M35.2 78.3H40v-44c0-1.3-1.1-7.2-2.4-7.2-1.3 0-2.4 6-2.4 7.3z"/>
  <path fill="#4d3c8c" d="M35.2 35.6H40v-.8h-4.8zm0 26.6H40v-.9h-4.8zm0 1.6H40V63h-4.8z"/>
  <path fill="#5ec3ff" d="M35.2 79.6H40l-1.3-2h-2.2z"/>
  <path fill="#6cb2ff" d="M34 80.5h7.2l-.7-1h-5.8z"/>
  <path fill="#4e3d8d" d="M35.2 78.3H40v-2.7h-4.8z"/>
  <path fill="#fff" d="M16.2 78.3H21v-44c0-1.3-1.1-7.2-2.4-7.2-1.3 0-2.4 6-2.4 7.3z"/>
  <path fill="#fff" d="M15.7 79.6h.5l.8-1.3h-.8v-44c0-1.3 1-7.2 2.4-7.2v53.4H15z"/>
  <path fill="#4c3c8b" d="M16.2 35.6H21v-.8h-4.8zm0 26.6H21v-.9h-4.8zm0 1.6H21V63h-4.8z"/>
  <path fill="#5ec3ff" d="M16.2 79.6H21l-1.3-2h-2.2z"/>
  <path fill="#6db2ff" d="M15 80.5h7l-.6-1h-5.8z"/>
  <path fill="#4e4090" d="M16.2 78.3H21v-2.7h-4.8z"/>
  <path fill="#98a0ff" d="M28.1 15.3c4 0 7.1 10.1 7.1 12.8V70c0 2.6-3.2 4.8-7.1 4.8-4 0-7.1-2.2-7.1-4.8V28c0-2.7 3.1-12.8 7.1-12.8"/>
  <path fill="#b8c5ff" d="M28.1 15.3v59.4c-4 0-7.1-2.2-7.1-4.9V28.1c0-2.7 3.1-12.8 7.1-12.8"/>
  <path fill="#4aeaff" d="M28.1 15.3c2.4 0 4.5 3.8 5.8 7.4H22.3c1.3-3.6 3.4-7.4 5.8-7.4"/>
  <path fill="#5fc6f7" d="M21 30.6h14.2V30H21z"/>
  <path fill="#5dbaff" d="M28.1 46.7l1 .5-1 .5zM38.5 65l-2.2-2.5C34.7 61 34 57.6 34 54.7c0-2.5-1.1-4.5-2.8-5.3l-2-1.1v-1l3.2 1.7c1.6.8 2.7 3.1 2.7 5.7 0 2.9 1 5.6 2.4 7.2l2.3 2.4a25.1 25.1 0 0 1 5.5 10.4h-1.7a23.4 23.4 0 0 0-5.2-9.7"/>
  <path fill="#53c9ff" d="M31.3 49.4c1.6.8 2.8 2.7 2.8 5.4 0 2.8.6 6.1 2.2 7.7l2.2 2.5a23.4 23.4 0 0 1 5.2 9.7H29.2V48.3z"/>
  <path fill="#5dbaff" d="M27 47.2l1.1-.5v1zm-2.2 2.2c-1.6.8-2.7 2.7-2.7 5.4 0 2.8-.6 6.1-2.2 7.7L17.7 65a23.9 23.9 0 0 0-5.2 9.7h-1.7a25.1 25.1 0 0 1 5.5-10.4l2.2-2.4a10.7 10.7 0 0 0 2.5-7.1c0-2.7 1-5 2.7-5.8l3.3-1.7v1zm3.3-1.7v-1z"/>
  <path fill="#53c9ff" d="M29.2 47.2v.1h-.1zm-1.1.5l1-.5.1.1v1zm1.1.6v26.4h-1.1v-27zM20 62.5c1.5-1.6 2.1-4.9 2.1-7.7 0-2.7 1.1-4.6 2.7-5.4l2.2-1.1v26.4H12.5a23.4 23.4 0 0 1 5.2-9.7zm8-14.8v27h-1V48.3zm0 0v27z"/>
  <path fill="#59baff" d="M29.7 77.3h1.8v-2h-1.8z"/>
  <path fill="#64afff" d="M29.2 78.3H32l-.2-1h-2.2z"/>
  <path fill="#64b1ff" d="M24.7 77.3h1.8v-2h-1.8z"/>
  <path fill="#63a1ff" d="M24.3 78.3H27l-.3-1h-2.2z"/>
  <path fill="#fff" d="M24.3 75.3h7.6V38c0-2.1-1.7-5.9-3.8-5.9-2.1 0-3.8 3.8-3.8 5.9z"/>
  <path fill="#fff" d="M28.1 32v50l-.4-.3-.2-.7v-5.6h-3.2V37.9c0-2 1.7-5.9 3.8-5.9"/>
  <path fill="#4e3d8c" d="M25.4 41h5.4v-1.1a6.4 6.4 0 0 0-5.4 0z"/>
  <path fill="#6ab4ff" d="M24.3 69.5h7.6v5.9h-7.6zm0-22.6h7.6v-.3h-7.6zm0 10h7.6v-.2h-7.6z"/>
  <path fill="#4e3d8c" d="M28.1 32c1.1 0 2.2 1 2.9 2.4h-5.8C26 33.1 27 32 28.1 32"/>
  <path fill="#fff" d="M30 42h.2v-3H30zm-3.8 0h.3v-3h-.3zm1.3 39l.3.7a.4.4 0 0 0 .6 0l.3-.7v-9.6l-.6-1.9-.6 1.9V81"/>
</svg>
