<svg viewBox="0 0 400 400"><path d="M0 200v200h400V0H0v200zM259.2 99.1a54.2 54.2 0 0 1 22.1 11l4.8 4.1 8.7-2.7a127 127 0 0 0 15.6-6.1c3.8-1.9 7.3-3.3 7.8-3.2 2 .7-6.6 15.2-12.4 21l-6 6 4.3-.7c2.4-.4 8-2 12.4-3.6 4.4-1.5 8.1-2.6 8.3-2.4 1.4 1.3-11.2 16.2-19 22.4l-5.5 4.3-.6 12.7c-1 21.6-6 41-15.7 60.2a141.9 141.9 0 0 1-101.5 77.6c-6.9 1.3-13.7 1.7-28.5 1.7-21.7 0-31.7-1.5-48.7-7.5A171 171 0 0 1 75 279.2c0-.4 5.7-.8 12.8-.8a93 93 0 0 0 35.4-6.4c8.1-2.9 25.5-12.6 24.5-13.7-.3-.2-3.4-1-7-1.8a53 53 0 0 1-34.6-26.3c-4.4-8.7-4.4-8.8 3.9-8.4 3.8.2 8.2.1 9.7-.3 2.6-.6 2.4-.8-2.8-2.9-18.2-7.4-31.9-26.3-31.9-44.2v-5.3l5.3 2.4c2.8 1.3 7.5 2.8 10.2 3.3l5 .8-5.5-5.5a52 52 0 0 1-9.9-59.2l2-4.1 7 7.6a156.4 156.4 0 0 0 47.2 34c12.7 5.6 28.8 9.8 46 12.1l4.9.6-.7-6.3c-1-9.3.9-19 5.5-28.4a51.5 51.5 0 0 1 57.2-27.3z"/></svg>