<svg viewBox="0 0 313.9 293.9">
  <defs>
    <clipPath id="a">
      <path d="M0 520h520V0H0v520z"/>
    </clipPath>
  </defs>
  <g clip-path="url(#a)" transform="matrix(1.25 0 0 -1.25 -168 472)">
    <path fill="#367afd" d="M368.7 191H301l-16.2-28.4a3.8 3.8 0 0 0-6.5-.1l-13.8 28.7-67-.3c-7.6 0-13.8 6.2-13.8 13.8v101.9c0 7.6 6.2 13.8 13.8 13.8h171.2c7.6 0 13.8-6.2 13.8-13.8V204.7c0-7.6-6.2-13.8-13.8-13.8"/>
    <path fill="#fff" d="M327.7 237.2H260L243.7 209a3.8 3.8 0 0 0-6.4-.2l-13.8 28.7-67-.2c-7.6 0-13.8 6.2-13.8 13.8V353c0 7.5 6.2 13.7 13.8 13.7h171.2c7.6 0 13.8-6.2 13.8-13.7V251c0-7.5-6.2-13.7-13.8-13.7"/>
    <path fill="#fff" d="M333 245h-67.8L249 216.8a3.8 3.8 0 0 0-6.4-.1l-13.9 28.7-67-.2c-7.5 0-13.7 6.2-13.7 13.8v101.8c0 7.6 6.2 13.8 13.8 13.8H333c7.5 0 13.7-6.2 13.7-13.8V259c0-7.6-6.2-13.8-13.7-13.8"/>
    <path fill="#333" d="M377.3 200.3c0-7.6-6.2-13.8-13.8-13.8h-63c-1.4 0-2.8-.8-3.5-2l-17.7-29.8-17.6 29.8a4 4 0 0 1-3.5 2h-63c-7.6 0-13.8 6.2-13.8 13.8v31.9h35.7l20-33.7a4.2 4.2 0 0 1 7.1 0l20 33.7h60.6a22 22 0 0 1 22.1 22v61h16.6c7.6 0 13.8-6.1 13.8-13.7V200.3zm-234.6 54v101.2c0 7.6 6.2 13.8 13.8 13.8h168.3c7.6 0 13.8-6.2 13.8-13.8V254.3c0-7.6-6.2-13.8-13.8-13.8h-63c-1.4 0-2.8-.8-3.5-2l-17.6-29.8-17.7 29.8a4 4 0 0 1-3.5 2h-63c-7.6 0-13.8 6.2-13.8 13.8m220.8 69.3H347v32a22 22 0 0 1-22 22H156.4a22 22 0 0 1-22-22V254.2a22 22 0 0 1 22-22.1H173v-32a22 22 0 0 1 22-22h60.7l20-33.7a4.2 4.2 0 0 1 7.1 0l20 33.7h60.6a22 22 0 0 1 22 22v101.3a22 22 0 0 1-22 22"/>
    <path fill="#48c0d8" d="M197 300.3h-13.8a5.8 5.8 0 0 0-5.8 5.8V320c0 3.2 2.6 5.8 5.8 5.8H197c3.2 0 5.8-2.6 5.8-5.8v-13.8c0-3.2-2.6-5.8-5.8-5.8m54.9-.1H238a5.8 5.8 0 0 0-5.8 5.8V320c0 3.2 2.6 5.8 5.8 5.8h13.8c3.2 0 5.8-2.6 5.8-5.8v-13.8c0-3.2-2.6-5.8-5.8-5.8m55-.1H293a5.8 5.8 0 0 0-5.8 5.8V320c0 3.2 2.6 5.8 5.8 5.8h13.8c3.2 0 5.8-2.6 5.8-5.8v-13.8c0-3.2-2.6-5.8-5.8-5.8"/>
    <path fill="#333" d="M175.6 315.3c-.7 0-1.3-.6-1.3-1.3v-14.5c0-.7.6-1.3 1.3-1.3H190c.7 0 1.3.6 1.3 1.3V314c0 .7-.6 1.3-1.3 1.3h-14.4zm14.4-25.4h-14.4a9.6 9.6 0 0 0-9.7 9.6V314c0 5.3 4.4 9.6 9.7 9.6H190c5.3 0 9.6-4.3 9.6-9.6v-14.5c0-5.3-4.3-9.6-9.6-9.6m40.5 25.4c-.7 0-1.3-.6-1.3-1.3v-14.5c0-.7.6-1.3 1.3-1.3h14.4c.7 0 1.3.6 1.3 1.3V314c0 .7-.6 1.3-1.3 1.3h-14.4zm14.4-25.4h-14.4a9.6 9.6 0 0 0-9.7 9.6V314c0 5.3 4.4 9.6 9.7 9.6h14.4c5.3 0 9.6-4.3 9.6-9.6v-14.5c0-5.3-4.3-9.6-9.6-9.6m40.5 25.4c-.7 0-1.3-.6-1.3-1.3v-14.5c0-.7.6-1.3 1.3-1.3h14.4c.7 0 1.3.6 1.3 1.3V314c0 .7-.6 1.3-1.3 1.3h-14.4zm14.4-25.4h-14.4a9.6 9.6 0 0 0-9.7 9.6V314c0 5.3 4.4 9.6 9.7 9.6h14.4c5.3 0 9.6-4.3 9.6-9.6v-14.5c0-5.3-4.3-9.6-9.6-9.6"/>
  </g>
</svg>